<svg width="19" height="18" viewBox="0 0 19 18" fill="none" xmlns="http://www.w3.org/2000/svg">
<path d="M13.94 4.965C13.8638 4.78174 13.7182 4.63611 13.535 4.56C13.4448 4.52157 13.348 4.50118 13.25 4.5H5.74995C5.55104 4.5 5.36028 4.57902 5.21962 4.71967C5.07897 4.86032 4.99995 5.05109 4.99995 5.25C4.99995 5.44891 5.07897 5.63968 5.21962 5.78033C5.36028 5.92098 5.55104 6 5.74995 6H11.4425L5.21745 12.2175C5.14716 12.2872 5.09136 12.3702 5.05329 12.4616C5.01521 12.553 4.99561 12.651 4.99561 12.75C4.99561 12.849 5.01521 12.947 5.05329 13.0384C5.09136 13.1298 5.14716 13.2128 5.21745 13.2825C5.28718 13.3528 5.37013 13.4086 5.46152 13.4467C5.55292 13.4847 5.65095 13.5043 5.74995 13.5043C5.84896 13.5043 5.94699 13.4847 6.03839 13.4467C6.12978 13.4086 6.21273 13.3528 6.28245 13.2825L12.5 7.0575V12.75C12.5 12.9489 12.579 13.1397 12.7196 13.2803C12.8603 13.421 13.051 13.5 13.25 13.5C13.4489 13.5 13.6396 13.421 13.7803 13.2803C13.9209 13.1397 14 12.9489 14 12.75V5.25C13.9988 5.15199 13.9784 5.05517 13.94 4.965Z" fill="black"/>
</svg>
