<svg width="16" height="16" viewBox="0 0 16 16" fill="none" xmlns="http://www.w3.org/2000/svg">
<path d="M9.81301 5.85967L6.95301 8.72634L5.85301 7.62634C5.79325 7.55655 5.7197 7.49987 5.63699 7.45986C5.55428 7.41984 5.46419 7.39736 5.37238 7.39381C5.28057 7.39026 5.18901 7.40573 5.10346 7.43925C5.01791 7.47277 4.94021 7.5236 4.87524 7.58857C4.81027 7.65354 4.75944 7.73124 4.72592 7.81679C4.6924 7.90234 4.67693 7.9939 4.68048 8.08571C4.68402 8.17752 4.70651 8.26761 4.74653 8.35032C4.78654 8.43303 4.84322 8.50658 4.91301 8.56634L6.47968 10.1397C6.54197 10.2015 6.61585 10.2503 6.69707 10.2835C6.7783 10.3167 6.86527 10.3335 6.95301 10.333C7.1279 10.3323 7.2955 10.2628 7.41968 10.1397L10.753 6.80634C10.8155 6.74437 10.8651 6.67063 10.8989 6.58939C10.9328 6.50815 10.9502 6.42102 10.9502 6.33301C10.9502 6.245 10.9328 6.15786 10.8989 6.07662C10.8651 5.99538 10.8155 5.92165 10.753 5.85967C10.6281 5.73551 10.4591 5.66581 10.283 5.66581C10.1069 5.66581 9.93792 5.73551 9.81301 5.85967ZM7.99968 1.33301C6.68114 1.33301 5.3922 1.724 4.29588 2.45654C3.19955 3.18909 2.34506 4.23028 1.84048 5.44845C1.3359 6.66663 1.20387 8.00707 1.46111 9.30028C1.71834 10.5935 2.35328 11.7814 3.28563 12.7137C4.21798 13.6461 5.40587 14.281 6.69908 14.5382C7.99228 14.7955 9.33273 14.6635 10.5509 14.1589C11.7691 13.6543 12.8103 12.7998 13.5428 11.7035C14.2754 10.6071 14.6663 9.31822 14.6663 7.99967C14.6663 7.1242 14.4939 6.25729 14.1589 5.44845C13.8238 4.63961 13.3328 3.90469 12.7137 3.28563C12.0947 2.66657 11.3597 2.17551 10.5509 1.84048C9.74206 1.50545 8.87516 1.33301 7.99968 1.33301ZM7.99968 13.333C6.94484 13.333 5.9137 13.0202 5.03664 12.4342C4.15957 11.8481 3.47599 11.0152 3.07232 10.0407C2.66865 9.06611 2.56304 7.99376 2.76882 6.95919C2.97461 5.92463 3.48256 4.97432 4.22844 4.22844C4.97432 3.48256 5.92463 2.97461 6.9592 2.76882C7.99376 2.56303 9.06612 2.66865 10.0407 3.07232C11.0152 3.47598 11.8481 4.15957 12.4342 5.03663C13.0202 5.91369 13.333 6.94484 13.333 7.99967C13.333 9.41416 12.7711 10.7707 11.7709 11.7709C10.7707 12.7711 9.41417 13.333 7.99968 13.333Z" fill="#02B151"/>
</svg>
