<svg width="16" height="16" viewBox="0 0 16 16" fill="none" xmlns="http://www.w3.org/2000/svg">
<path d="M7.33366 1.3335C6.01512 1.3335 4.72619 1.72449 3.62986 2.45703C2.53353 3.18957 1.67905 4.23077 1.17447 5.44894C0.669881 6.66711 0.537859 8.00756 0.795093 9.30076C1.05233 10.594 1.68727 11.7819 2.61962 12.7142C3.55197 13.6466 4.73985 14.2815 6.03306 14.5387C7.32627 14.796 8.66671 14.6639 9.88489 14.1594C11.1031 13.6548 12.1442 12.8003 12.8768 11.704C13.6093 10.6076 14.0003 9.3187 14.0003 8.00016C14.0003 7.12468 13.8279 6.25778 13.4929 5.44894C13.1578 4.6401 12.6668 3.90517 12.0477 3.28612C11.4286 2.66706 10.6937 2.176 9.88489 1.84097C9.07605 1.50593 8.20914 1.3335 7.33366 1.3335ZM7.33366 13.3335C6.27883 13.3335 5.24768 13.0207 4.37062 12.4347C3.49356 11.8486 2.80997 11.0157 2.4063 10.0411C2.00264 9.0666 1.89702 7.99425 2.10281 6.95968C2.30859 5.92512 2.81655 4.97481 3.56243 4.22893C4.30831 3.48305 5.25862 2.9751 6.29318 2.76931C7.32775 2.56352 8.4001 2.66914 9.37464 3.07281C10.3492 3.47647 11.1821 4.16006 11.7682 5.03712C12.3542 5.91418 12.667 6.94533 12.667 8.00016C12.667 9.41465 12.1051 10.7712 11.1049 11.7714C10.1047 12.7716 8.74815 13.3335 7.33366 13.3335ZM7.33366 4.00016C7.15685 4.00016 6.98728 4.0704 6.86226 4.19542C6.73723 4.32045 6.667 4.49002 6.667 4.66683V7.6135L5.267 8.42016C5.13857 8.49294 5.03792 8.60628 4.98085 8.74241C4.92377 8.87855 4.9135 9.02978 4.95163 9.17238C4.98976 9.31499 5.07414 9.44091 5.19154 9.53039C5.30894 9.61987 5.45272 9.66786 5.60033 9.66683C5.71711 9.66764 5.83206 9.63775 5.93366 9.58016L7.667 8.58016L7.727 8.52016L7.83366 8.4335C7.85973 8.40049 7.88209 8.36472 7.90033 8.32683C7.92206 8.29104 7.93993 8.25305 7.95366 8.2135C7.9718 8.17111 7.98305 8.1261 7.987 8.08016L8.00033 8.00016V4.66683C8.00033 4.49002 7.93009 4.32045 7.80507 4.19542C7.68004 4.0704 7.51047 4.00016 7.33366 4.00016Z" fill="#E09400"/>
</svg>
