<svg width="20" height="20" viewBox="0 0 20 20" fill="none" xmlns="http://www.w3.org/2000/svg">
<path d="M9.99999 1.66666C14.593 1.66666 18.3333 5.40521 18.3333 10.0048C18.3333 14.5948 14.593 18.3333 9.99999 18.3333C5.407 18.3333 1.66666 14.5948 1.66666 10.0048C1.66666 5.40521 5.407 1.66666 9.99999 1.66666ZM9.05083 6.69159C8.87386 6.69159 8.70494 6.73179 8.54407 6.81219C8.34298 6.92474 8.1821 7.10162 8.09362 7.31066C8.03731 7.45538 7.94883 7.88953 7.94883 7.89757C7.86035 8.37192 7.81209 9.14375 7.81209 9.99598C7.81209 10.8088 7.86035 11.5477 7.93274 12.0301C7.94079 12.0381 8.02927 12.5768 8.12579 12.7617C8.30276 13.0994 8.64864 13.3084 9.01865 13.3084H9.05083C9.29214 13.3004 9.7989 13.0913 9.7989 13.0833C10.6515 12.7295 12.3327 11.6281 13.0084 10.8964L13.0566 10.8482C13.1451 10.7598 13.2577 10.6231 13.2818 10.5909C13.4105 10.4221 13.4749 10.2131 13.4749 10.0048C13.4749 9.77086 13.4025 9.55378 13.2658 9.37691C13.2336 9.34475 13.1129 9.20807 13.0003 9.09551C12.3407 8.388 10.6194 7.23026 9.71846 6.8765C9.58171 6.82103 9.23583 6.69963 9.05083 6.69159Z" fill="black"/>
</svg>
