<svg width="12" height="12" viewBox="0 0 12 12" fill="none" xmlns="http://www.w3.org/2000/svg">
<path d="M3.18744 0.656252H10.4999C10.7237 0.656252 10.9383 0.745148 11.0966 0.903381C11.2548 1.06161 11.3437 1.27623 11.3437 1.5V8.8125C11.3437 9.03628 11.2548 9.25089 11.0966 9.40912C10.9383 9.56736 10.7237 9.65625 10.4999 9.65625C10.2762 9.65625 10.0616 9.56736 9.90332 9.40912C9.74509 9.25089 9.65619 9.03628 9.65619 8.8125V3.53906L2.09619 11.097C2.0177 11.1754 1.92453 11.2377 1.82198 11.2802C1.71944 11.3227 1.60953 11.3445 1.49853 11.3445C1.27437 11.3445 1.05939 11.2555 0.900877 11.097C0.742369 10.9384 0.65332 10.7235 0.65332 10.4993C0.65332 10.2751 0.742369 10.0602 0.900877 9.90164L8.46088 2.34375H3.18744C2.96366 2.34375 2.74905 2.25486 2.59082 2.09662C2.43258 1.93839 2.34369 1.72378 2.34369 1.5C2.34369 1.27623 2.43258 1.06161 2.59082 0.903381C2.74905 0.745148 2.96366 0.656252 3.18744 0.656252Z" fill="white" fill-opacity="0.32"/>
</svg>
